<svg width="193" height="48" viewBox="0 0 193 48" fill="none" xmlns="http://www.w3.org/2000/svg">
<g clip-path="url(#clip0_6_1846)">
<ellipse cx="19.1546" cy="18.7762" rx="14.5792" ry="14.8202" fill="#91DBB6"/>
<path d="M44.4421 12.9708V9.26172H59.9986V12.9708H54.4126V28.1254H50.0275V12.9708H44.442H44.4421Z" fill="black"/>
<path d="M74.6675 19.5414V28.1254H70.752V20.3365C70.752 18.6936 69.8124 17.5279 68.2462 17.5279C66.7326 17.5279 65.4797 18.7733 65.4797 20.4952V28.1255H61.5642V9.26172H65.4797V16.0974C66.3669 14.7724 67.9594 14.0306 69.5775 14.0306C72.6312 14.0306 74.6674 16.3093 74.6674 19.5414H74.6675Z" fill="black"/>
<path d="M87.4418 23.8152L90.8607 24.5839C90.1563 26.9418 87.4154 28.6637 84.2572 28.6637C79.9506 28.6637 76.8964 25.6169 76.8964 21.2454C76.8964 17.0064 79.9506 14.0391 84.2572 14.0391C88.5379 14.0391 91.4613 17.0064 91.4613 21.2981C91.4613 21.6429 91.4612 22.1992 91.4092 22.4907L80.9421 22.4643C81.2814 24.3719 82.5867 25.6168 84.3615 25.6168C85.7712 25.6168 86.9717 24.8486 87.4418 23.8151V23.8152ZM87.4938 20.0797C87.259 18.3578 85.9536 17.086 84.1788 17.086C82.4564 17.086 81.2554 18.2781 80.9162 20.0797H87.4938Z" fill="black"/>
<path d="M98.3669 28.1254V9.26172H104.162L109.408 23.0649L114.602 9.26172H120.475V28.1254H116.194V14.6401L111.052 28.1254H107.763L102.648 14.6401V28.1254H98.3668H98.3669Z" fill="black"/>
<path d="M134.131 14.569H138.047V28.1339H134.131V26.2527C133.087 27.7632 131.495 28.6637 129.59 28.6637C125.831 28.6637 123.195 25.6437 123.195 21.3514C123.195 17.0591 125.831 14.0391 129.59 14.0391C131.495 14.0391 133.087 14.9396 134.131 16.4501V14.5689V14.569ZM134.105 21.3514C134.105 19.1523 132.644 17.5363 130.608 17.5363C128.572 17.5363 127.11 19.1523 127.11 21.3514C127.11 23.5505 128.572 25.1665 130.608 25.1665C132.644 25.1665 134.105 23.5505 134.105 21.3514Z" fill="black"/>
<path d="M150.372 14.4044V17.9279C149.615 17.61 148.754 17.4245 148.179 17.4245C146.483 17.4245 145.361 18.8818 145.361 20.9216V28.128H141.445V14.5631H145.204V16.2851C145.987 14.9337 147.292 14.0596 148.78 14.0596C149.301 14.0596 149.85 14.1924 150.372 14.4044H150.372Z" fill="black"/>
<path d="M153.257 17.5876H151.378V14.567H153.44L153.884 11.1494H157.173V14.567H160.2V17.5876H157.173V23.3366C157.173 24.4755 157.851 25.2442 158.947 25.2442C159.313 25.2442 159.887 25.1647 160.331 25.0587L160.305 28.2379C159.521 28.5027 158.477 28.6618 157.642 28.6618C154.98 28.6618 153.257 26.6219 153.257 23.7342V17.5877V17.5876Z" fill="black"/>
<path d="M172.492 23.8152L175.912 24.5839C175.207 26.9418 172.466 28.6637 169.308 28.6637C165.001 28.6637 161.948 25.6169 161.948 21.2454C161.948 17.0064 165.001 14.0391 169.308 14.0391C173.589 14.0391 176.512 17.0064 176.512 21.2981C176.512 21.6429 176.512 22.1992 176.46 22.4907L165.993 22.4643C166.333 24.3719 167.638 25.6168 169.412 25.6168C170.822 25.6168 172.023 24.8486 172.492 23.8151V23.8152ZM172.545 20.0797C172.31 18.3578 171.004 17.086 169.23 17.086C167.507 17.086 166.306 18.2781 165.967 20.0797H172.545Z" fill="black"/>
<path d="M188.86 19.8941C188.521 18.4373 187.19 17.3776 185.702 17.3776C183.797 17.3776 182.309 19.0463 182.309 21.3514C182.309 23.6565 183.771 25.3252 185.702 25.3252C187.242 25.3252 188.521 24.2655 188.886 22.8087L192.541 23.2854C192.045 26.412 189.121 28.6637 185.676 28.6637C181.474 28.6637 178.393 25.5905 178.393 21.3514C178.393 17.1123 181.448 14.0391 185.676 14.0391C189.174 14.0391 192.097 16.291 192.515 19.4174L188.86 19.8941Z" fill="black"/>
<path d="M37.5335 18.9633C37.5335 8.61935 29.2305 0.249023 18.9699 0.249023C8.70932 0.249023 0.40625 8.61935 0.40625 18.9633C0.40625 29.3072 8.70932 37.6775 18.9699 37.6775C21.2482 37.6775 23.4252 37.2692 25.4334 36.5036C22.4463 39.549 18.6999 41.8117 14.6327 42.9685L15.9997 47.8853C22.0751 46.167 27.5598 42.4071 31.4244 37.3372C35.424 32.0972 37.5335 25.8194 37.5335 19.2014V18.9633ZM5.46914 18.9633C5.46914 11.4605 11.5276 5.35288 18.9699 5.35288C26.4123 5.35288 32.4707 11.4605 32.4707 18.9633C32.4707 26.4661 26.4122 32.5736 18.9699 32.5736C11.5277 32.5736 5.46914 26.466 5.46914 18.9633Z" fill="#12100E"/>
<path d="M18.9716 24.0652C21.7677 24.0652 24.0344 21.7801 24.0344 18.9614C24.0344 16.1426 21.7677 13.8574 18.9716 13.8574C16.1755 13.8574 13.9088 16.1425 13.9088 18.9614C13.9088 21.7802 16.1754 24.0652 18.9716 24.0652Z" fill="#12100E"/>
</g>
<defs>
<clipPath id="clip0_6_1846">
<rect width="192.133" height="47.6362" fill="white" transform="translate(0.40625 0.249023)"/>
</clipPath>
</defs>
</svg>
